<svg id="visual" viewBox="0 0 960 300" width="960" height="300" xmlns="http://www.w3.org/2000/svg" xmlns:xlink="http://www.w3.org/1999/xlink" version="1.1"><rect x="0" y="0" width="960" height="300" fill="#F6FFDE"></rect><path d="M0 168L80 168L80 141L160 141L160 164L240 164L240 184L320 184L320 189L400 189L400 137L480 137L480 147L560 147L560 151L640 151L640 193L720 193L720 157L800 157L800 152L880 152L880 177L960 177L960 207L960 301L960 301L880 301L880 301L800 301L800 301L720 301L720 301L640 301L640 301L560 301L560 301L480 301L480 301L400 301L400 301L320 301L320 301L240 301L240 301L160 301L160 301L80 301L80 301L0 301Z" fill="#e3f2c1"></path><path d="M0 174L80 174L80 232L160 232L160 194L240 194L240 233L320 233L320 184L400 184L400 184L480 184L480 215L560 215L560 200L640 200L640 200L720 200L720 224L800 224L800 228L880 228L880 173L960 173L960 179L960 301L960 301L880 301L880 301L800 301L800 301L720 301L720 301L640 301L640 301L560 301L560 301L480 301L480 301L400 301L400 301L320 301L320 301L240 301L240 301L160 301L160 301L80 301L80 301L0 301Z" fill="#cfe4b8"></path><path d="M0 233L80 233L80 219L160 219L160 228L240 228L240 234L320 234L320 218L400 218L400 221L480 221L480 253L560 253L560 236L640 236L640 235L720 235L720 258L800 258L800 247L880 247L880 255L960 255L960 219L960 301L960 301L880 301L880 301L800 301L800 301L720 301L720 301L640 301L640 301L560 301L560 301L480 301L480 301L400 301L400 301L320 301L320 301L240 301L240 301L160 301L160 301L80 301L80 301L0 301Z" fill="#bcd6b0"></path><path d="M0 270L80 270L80 265L160 265L160 267L240 267L240 278L320 278L320 263L400 263L400 266L480 266L480 265L560 265L560 243L640 243L640 274L720 274L720 288L800 288L800 248L880 248L880 245L960 245L960 278L960 301L960 301L880 301L880 301L800 301L800 301L720 301L720 301L640 301L640 301L560 301L560 301L480 301L480 301L400 301L400 301L320 301L320 301L240 301L240 301L160 301L160 301L80 301L80 301L0 301Z" fill="#aac8a7"></path></svg>